# xmcd
#
# Track frame offsets:
#	150
#	23233
#	39416
#	65423
#	84203
#	94398
#	114167
#	128400
#	146451
#	165996
#	179739
#	198951
#
# Disc length: 2878 seconds
#
# Revision: 1
# Processed by: cddbd v1.5.2PL0 Copyright (c) Steve Scherf et al.
# Submitted via: audiograbber 1.83.01
#
DISCID=920b3c0c
DTITLE=Randy Crawford and Joe Sample - No Regrets
DYEAR=2008
DGENRE=Soul
TTITLE0=Every Day I Have The Blues
TTITLE1=Today I Sing The Blues
TTITLE2=Respect Yourself
TTITLE3=Angel
TTITLE4=Me, Myself And I
TTITLE5=Just One Smile
TTITLE6=Don't Put All Your Dreams In One Basket
TTITLE7=This Bitter Earth
TTITLE8=Starting All Over Again
TTITLE9=No Regrets
TTITLE10=Lead Me On
TTITLE11=Angel Of The Morning
EXTD=
EXTT0=
EXTT1=
EXTT2=
EXTT3=
EXTT4=
EXTT5=
EXTT6=
EXTT7=
EXTT8=
EXTT9=
EXTT10=
EXTT11=
PLAYORDER=
